<svg xmlns="http://www.w3.org/2000/svg" width="1748" height="1117" viewBox="0 0 1748 1117">
  <metadata><?xpacket begin="﻿" id="W5M0MpCehiHzreSzNTczkc9d"?>
<x:xmpmeta xmlns:x="adobe:ns:meta/" x:xmptk="Adobe XMP Core 5.6-c138 79.159824, 2016/09/14-01:09:01        ">
   <rdf:RDF xmlns:rdf="http://www.w3.org/1999/02/22-rdf-syntax-ns#">
      <rdf:Description rdf:about=""/>
   </rdf:RDF>
</x:xmpmeta>
                                                                                                    
                                                                                                    
                                                                                                    
                                                                                                    
                                                                                                    
                                                                                                    
                                                                                                    
                                                                                                    
                                                                                                    
                                                                                                    
                                                                                                    
                                                                                                    
                                                                                                    
                                                                                                    
                                                                                                    
                                                                                                    
                                                                                                    
                                                                                                    
                                                                                                    
                                                                                                    
                           
<?xpacket end="w"?></metadata>
<defs>
    <style>
      .cls-1 {
        fill: #fff;
        fill-rule: evenodd;
      }
    </style>
  </defs>
  <path class="cls-1" d="M454,216s-12,8.222-12,20v32s6.477,10.388,6.477,2.395S468,279.435,468,286c0,9.735,12,28.288,22,32s28,16,28,16,12-21.728,2-26-26-12-26-12l-16-16-8-34S460,237.98,454,216Zm-88,12s-20-11.81-30-14-38-33.85-24-40,6-9.825,24,6S370,214.013,366,228Zm26-2s-12-7.823-10-18-6-27.828,2-22,16,30.193,24,30S422,224,392,226Zm-30-62s-20,12.136-16,0,4-39.875,14-32-4,20.14,8,22,14,12,14,12-4,18.168-12,20S352,173.991,362,164Zm32-2s-6-5.882-14-18-12-21.88,0-16,12,8.122,22,8S398,142.018,394,162Z"/>
  <path class="cls-1" d="M1748,980l-422-2s-94,6-122,18-58,6-70,4-54,16-60,24-26,12-52,18-38,20-62,14-56-4-74,6-28,10-38,12-20,24-46,22-52-38-110-36-134,58-174,56-82-8-82-8-4-14-14-58-24-112-62-128-58-28-68-36-14-18-28-14-22-2-36-10-18-16-28-12-14,2-26-2-18,20-24,6-12-10-8-26-6-74,4-74,14,18,14,30,0,24,12,20,12-38,12-38-10-34,2-38,18-16,18-16-22,2-34-6-30-24-24-32,4-12,24-18,36-16,20-22-28-30-40-22-8,22-20,20,10-38-10-72S96,504,84,460s-20-54-34-70-6-36-16-46S-6,326,2,302,18,198,18,198s-4-16,26-2,82,64,122,74,62-10,84-2,18,20,44,20,58-6,84,4,40-12,48-8,32,6,24,54-16,54-40,84-38,48-34,70,8,32,16,18,10-52,26-60,10-10,22-28,4-24,24-40,28-42,34-30,10,28,2,52-14,18-14,38,0,36-18,48-12,22-22,26-42,16-32,18,38-12,54-8,32-12,42-26,26-8,32-28,0-42,6-70-22-28-16-62,6-58-4-72-22-20-12-46,14-42,8-58-50-32-40-44,22-18-6-42-30-44-40-50-8-28-8-28H1714s-52,26-122,28S478,24,478,24s-2,14,18,32,54,34,44,46-10,24,4,42,24,36,18,64-2,52,4,74-4,50,2,66,14,60,8,90,4,46-14,56-52,38-60,46-40,16-60,18-60,8-60-6c0-50.051-6-30-6-30s-30,0-26-26-2-60,22-80,46-70,42-82,16-26-36-20-46,4-80-2-48-14-78-10-42,6-74-8C42,248.5,40,223.5,40,258c0,18-8,36,0,48s28,28,28,40,14,30,30,52,36,50,36,78,0,58,16,74,70,68,70,68,34,4,18,22-52,36-36,40,48,16,36,36-24,38-24,50-4,48-4,48,10,12,30,18,38,0,56,16,30,30,52,40,64,22,78,64,24,104,40,116,68,22,86,10c94.72-63.15,220.613-46.19,174-56,66.148,13.93,58.519,39.41,90,32,34-8,26-22,50-26s76,0,102-4,86-20,110-34,46-20,112-26,102-20,134-18,310,2,310,2S1704,948,1748,980ZM-458-80"/>
</svg>
